<!-- icon666.com - MILLIONS OF FREE VECTOR ICONS --><svg clip-rule="evenodd" fill-rule="evenodd" image-rendering="optimizeQuality" shape-rendering="geometricPrecision" text-rendering="geometricPrecision" viewBox="0 0 6.82666 6.82666" xmlns="http://www.w3.org/2000/svg"><g id="Layer_x0020_1"><g id="_445727200"><path id="_445728016" d="m2.79111 5.82032c-1.32723 0-2.40701-1.07974-2.40701-2.40696 0-1.32724 1.07978-2.407 2.40701-2.407.397102-.00000394.790799.0988504 1.13852.285878.0337362.0181339.046378.0602047.0282323.0939488-.0181535.0337244-.0602165.0463661-.0939528.0282283-.327594-.176193-.698559-.269319-1.0728-.269319-1.25073-.00000394-2.26827 1.01755-2.26827 2.26827s1.01754 2.26824 2.26827 2.26824c.374228 0 .745205-.0930945 1.0728-.269283.0337598-.018189.075815-.00553937.0939528.0281811.0181496.0338386.00550394.075874-.0282323.0939331-.347744.187031-.741433.285906-1.13852.285894z"></path><path id="_445727944" d="m1.40851 3.20794c-.00162205 0-.00325197-.00004724-.00490157-.00016535-.0382126-.00266929-.0670354-.0358071-.0643701-.0740276.0402205-.576594.205563-1.10951.465563-1.50057.26874-.404224.619028-.626819.986307-.626819.442886-.00000394.856244.322319 1.13406.884335.0169685.0343425.00288583.0759449-.0314606.0929252-.0343307.0170039-.0759331.00290551-.0929213-.0314567-.253535-.512906-.621547-.807067-1.00967-.807067-.319335-.00000394-.628579.200614-.870776.564894-.246898.37137-.404122.880437-.442693 1.43342-.00255118.0365709-.0330157.0645354-.0691299.0645354zm1.3826 2.61238c-.36728 0-.717567-.222543-.986307-.626783-.26-.391075-.425343-.92398-.465563-1.50057-.00266142-.0382402.0261575-.0713701.0643701-.0740315.0382008-.0025748.0713661.0261457.0740315.064374.0385709.552988.195795 1.06206.442693 1.43342.242197.364232.551441.56487.870776.56487.388126 0 .756138-.294091 1.00967-.807043.0169803-.0343583.0585866-.0484409.0929213-.0314606.0343465.0169764.0484252.0585906.0314606.0929252-.277823.562039-.691169.884315-1.13406.884303z"></path><path id="_445727752" d="m3.17921 4.58591c-.00233465 0-.00468504-.00009843-.00705512-.00033858-.0381181-.0038622-.0658898-.037874-.0620472-.0759921.0337913-.334701.0516496-.713772.0516496-1.09622.00000394-.620232-.0453425-1.2027-.127677-1.64013-.0969961-.515299-.208276-.628142-.242972-.628142-.0348898-.00000394-.146736.113756-.243909.633224-.0070315.0376496-.0432205.0625512-.0809409.055437-.0376614-.00705118-.0624685-.0432835-.0554213-.0809409.0414291-.221512.0902008-.396461.144949-.520035.0675039-.15237.144469-.226421.235323-.226421.0905669-.00000394.167315.0735551.23465.22487.0545866.122642.103256.296378.144673.516346.0838701.445614.130063 1.03721.130063 1.66579.00000394.387016-.0180984.770909-.0523504 1.11016-.00361024.0357362-.0337559.0623937-.0689331.0623858zm-.388102 1.23442c-.0905551 0-.167315-.0735709-.234646-.224835-.0545945-.122602-.10326-.296382-.144665-.516335-.083878-.445638-.130079-1.03721-.130079-1.6658.00000394-.386957.0181142-.770839.0523661-1.11017.00385433-.0381181.0378031-.0659606.0759803-.0620472.0381181.00383465.0658976.0378661.0620591.0759803-.0337953.334783-.0516693.713854-.0516693 1.09623.00000394.620228.0453583 1.20271.127685 1.64013.0969961.515264.208272.62811.242969.62811.0348898 0 .14672-.113689.243909-.633213.00704724-.0376654.0432717-.0624567.0809409-.0554331.0376575.00703543.0624685.0432795.0554252.080937-.0414409.221484-.0902047.396472-.144941.520035-.0675.152343-.144484.226409-.235335.226398z"></path><path id="_445727728" d="m3.863 2.24517c-.00676772 0-.0136339-.00099213-.020437-.00308268-.322248-.0992205-.685831-.151661-1.05145-.151661-.0239764-.00000787-.049315.00030315-.0797402.00092913-.038437.00092126-.0699764-.0296378-.0707638-.067937-.00079134-.038311.0296142-.0699961.0679252-.0707756.0313976-.00066142.057626-.00094095.0825787-.00094095.384681-.00000394.752177.0530866 1.09228.157791.0366102.0112598.0571575.0500866.0458858.0867087-.00917717.0297992-.0366378.0489646-.0662756.0489685zm-.443472 2.57893c-.033311 0-.0627126-.0240709-.0683504-.0580236-.00627165-.0377913.0192835-.0735197.0570748-.0797835.149815-.0248701.295933-.0590709.434323-.101669.0365748-.0112677.0754291.0092874.0867008.0458976.0112717.0366063-.00927559.0754409-.0458976.0867126-.144276.0444055-.296488.0800512-.452413.105917-.00383858.0006378-.00766929.00095276-.011437.00094882zm-.628413.0509173c-.63672 0-1.23635-.148295-1.68846-.417567-.463366-.275984-.718551-.646776-.718551-1.04409 0-.332598.176996-.645169.511862-.903965.316181-.244346.761996-.42398 1.25532-.505799.0377953-.00629528.0735118.0192953.0797717.0570827.00627559.0377913-.0192795.0735276-.0570827.0797874-.972157.161244-1.65113.684673-1.65113 1.27289 0 .346469.231126.674937.650807.924902.430953.256657 1.00537.398028 1.61746.398028.0260984-.00000787.0529409-.00027953.0797756-.00082284.0382244-.00086614.0699803.0296378.070752.0679488.00078347.0382874-.0296378.0699843-.0679488.0707559-.0277559.00056299-.0555394.00085433-.0825787.00085039z"></path><path id="_445727800" d="m1.12385 3.48272h-.670378c-.0383071 0-.0693661-.0310433-.0693661-.0693583 0-.0383268.0310591-.0693661.0693661-.0693661l.670378-.00001181c.038311 0 .0693661.0310591.0693661.069378 0 .0383071-.0310551.0693583-.0693661.0693583zm2.73913 0h-2.18919c-.038311 0-.0693701-.0310433-.0693701-.0693583 0-.0383268.0310591-.0693661.0693701-.0693661l2.18919-.00001181c.0383071 0 .0693661.0310591.0693661.069378 0 .0383071-.0310591.0693583-.0693661.0693583z"></path><path id="_445727872" d="m5.11808 1.04679c-.698764 0-1.18574.221138-1.18574.41961 0 .198445.486976.419579 1.18574.419579.69878-.00000787 1.18575-.221122 1.18575-.419579 0-.198488-.486976-.41961-1.18575-.41961zm0 .977917c-.34365 0-.66778-.0525197-.912677-.147925-.265547-.103465-.411787-.249213-.411787-.410382 0-.161201.14624-.306945.411787-.410394.244898-.0954134.569028-.147953.912677-.147953.343661 0 .667787.0525472.912673.147953.265567.103441.411803.249193.411803.410394 0 .161161-.14624.306917-.411803.410382-.244882.0953976-.569012.147933-.912673.147925z"></path><path id="_445728064" d="m5.11808 2.67371c-.34365 0-.66778-.0525433-.912677-.147949-.265547-.103457-.411787-.249193-.411787-.410382v-.648988c0-.038315.0310433-.0693583.0693661-.0693583.038311-.00001181.0693543.0310472.0693543.0693701v.648976c0 .198457.486976.419594 1.18574.419594.69878 0 1.18575-.221134 1.18575-.419594v-.648988c0-.038315.0310472-.0693583.0693701-.0693583.038311-.00001181.0693543.0310472.0693543.0693701v.648976c0 .161185-.14624.306933-.411803.410382-.244882.0953937-.569012.147949-.912673.147949z"></path><path id="_445727080" d="m5.11808 3.3227c-.34365 0-.66778-.0525394-.912677-.147945-.265547-.103461-.411787-.249197-.411787-.410382v-.648992c0-.0383189.0310433-.0693661.0693661-.0693661.038311-.00000394.0693543.0310591.0693543.0693661v.648984c0 .198457.486976.419606 1.18574.419606.69878-.00000787 1.18575-.221138 1.18575-.419598v-.648992c0-.0383189.0310472-.0693661.0693701-.0693661.038311-.00000394.0693543.0310591.0693543.0693661v.648984c0 .161185-.14624.306937-.411803.41039-.244882.0954016-.569012.147953-.912673.147945z"></path><path id="_445727344" d="m5.11808 3.97167c-.34365 0-.66778-.0525197-.912677-.147925-.265547-.103453-.411787-.249197-.411787-.410386v-.648996c0-.0383031.0310433-.0693622.0693661-.0693622.038311-.00000394.0693543.0310591.0693543.0693701v.64898c0 .198472.486976.419594 1.18574.419594.69878-.00001181 1.18575-.221122 1.18575-.419587v-.648996c0-.0383031.0310472-.0693622.0693701-.0693622.038311-.00000394.0693543.0310591.0693543.0693701v.64898c0 .161185-.14624.306945-.411803.410394-.244882.0953976-.569012.147941-.912673.147925z"></path><path id="_445727608" d="m5.11808 4.62067c-.34365 0-.66778-.0525315-.912677-.147945-.265547-.103445-.411787-.249197-.411787-.410382v-.648992c0-.0383189.0310433-.0693583.0693661-.0693583.038311-.00001181.0693543.0310472.0693543.0693661v.648976c0 .198472.486976.419602 1.18574.419602.69878-.00000394 1.18575-.221126 1.18575-.419594v-.648992c0-.0383189.0310472-.0693583.0693701-.0693583.038311-.00001181.0693543.0310472.0693543.0693661v.648976c0 .161189-.14624.306949-.411803.41039-.244882.0954055-.569012.147949-.912673.147945z"></path><path id="_445727584" d="m5.11808 5.2696c-.34365 0-.66778-.0525039-.912677-.147874-.265547-.103465-.411787-.249213-.411787-.410394v-.649c0-.038315.0310433-.0693583.0693661-.0693583.038311-.00000787.0693543.0310551.0693543.0693661v.64898c0 .198457.486976.419602 1.18574.419602.69878-.00000394 1.18575-.221134 1.18575-.419591v-.649c0-.038315.0310472-.0693583.0693701-.0693583.038311-.00000787.0693543.0310551.0693543.0693661v.64898c0 .161185-.14624.306941-.411803.410406-.244882.0953622-.569012.147874-.912673.147874z"></path><path id="_445727272" d="m5.11808 5.91861c-.34365 0-.66778-.0525079-.912677-.14789-.265547-.103453-.411787-.249169-.411787-.410425v-.648969c0-.0382992.0310433-.0693465.0693661-.0693465.038311-.00000787.0693543.0310472.0693543.0693583v.648949c0 .198472.486976.419591 1.18574.419591.69878-.00000394 1.18575-.221114 1.18575-.419583v-.648969c0-.0382992.0310472-.0693465.0693701-.0693465.038311-.00000787.0693543.0310472.0693543.0693583v.648949c0 .161252-.14624.306984-.411803.410433-.244882.095374-.569012.147894-.912673.14789z"></path><path id="_445727512" d="m1.39882 3.20774c-.11337 0-.20561.092252-.20561.205622 0 .113362.0922402.205606.20561.205606.113366 0 .205594-.0922441.205594-.205606 0-.113386-.0922283-.205606-.205594-.205622zm0 .549949c-.189878 0-.344346-.154465-.344346-.344327 0-.189878.154469-.344335.344346-.344335.189866-.00001181.344331.154465.344331.344335 0 .189858-.154465.344327-.344331.344327z"></path><path id="_445727224" d="m2.43539 1.83147c-.113362 0-.205598.0922441-.205598.205606 0 .113366.0922362.205614.205598.205614.113374-.00001181.205614-.0922441.205614-.205614 0-.11337-.0922441-.205598-.205614-.205606zm0 .549945c-.189858 0-.344327-.154469-.344327-.344339 0-.189866.154465-.344323.344327-.344323.189886-.00000787.34435.154465.34435.344323s-.154469.34435-.34435.344339z"></path><path id="_445727416" d="m3.14683 4.58401c-.113358 0-.205598.0922441-.205598.205618 0 .113354.0922402.205598.205598.205598.113378-.00000787.205602-.0922362.205602-.205598 0-.113378-.0922283-.205614-.205602-.205618zm0 .549945c-.189858 0-.344335-.154465-.344335-.344327 0-.189874.154476-.344335.344335-.344335.189874-.00000394.344339.154461.344339.344335 0 .18985-.154465.344335-.344339.344327z"></path></g></g></svg>