<!DOCTYPE svg PUBLIC "-//W3C//DTD SVG 1.1//EN" "http://www.w3.org/Graphics/SVG/1.1/DTD/svg11.dtd">
<!-- Uploaded to: SVG Repo, www.svgrepo.com, Transformed by: SVG Repo Mixer Tools -->
<svg fill="#c1d530" width="800px" height="800px" viewBox="0 0 30 30" xmlns="http://www.w3.org/2000/svg" stroke="#c1d530">
<g id="SVGRepo_bgCarrier" stroke-width="0"/>
<g id="SVGRepo_tracerCarrier" stroke-linecap="round" stroke-linejoin="round"/>
<g id="SVGRepo_iconCarrier">
<path d="M19.5 7c-.657 0-.657 1 0 1H22c3.887 0 7 3.113 7 7s-3.113 7-7 7h-2c-3.887 0-7-3.113-7-7v-.5c0-.672-1-.648-1 0v.5c0 4.423 3.577 8 8 8h2c4.423 0 8-3.577 8-8s-3.577-8-8-8zM8 7c-4.423 0-8 3.577-8 8s3.577 8 8 8h2.5c.665 0 .66-1 0-1H8c-3.887 0-7-3.113-7-7s3.113-7 7-7h2c3.887 0 7 3.113 7 7v.5c0 .676 1 .656 1 0V15c0-4.423-3.577-8-8-8z"/>
</g>
</svg>