<!DOCTYPE svg PUBLIC "-//W3C//DTD SVG 1.1//EN" "http://www.w3.org/Graphics/SVG/1.1/DTD/svg11.dtd">
<!-- Uploaded to: SVG Repo, www.svgrepo.com, Transformed by: SVG Repo Mixer Tools -->
<svg height="800px" width="800px" version="1.1" id="Layer_1" xmlns="http://www.w3.org/2000/svg" xmlns:xlink="http://www.w3.org/1999/xlink" viewBox="0 0 495 495" xml:space="preserve" fill="#000000">
<g id="SVGRepo_bgCarrier" stroke-width="0"/>
<g id="SVGRepo_tracerCarrier" stroke-linecap="round" stroke-linejoin="round"/>
<g id="SVGRepo_iconCarrier"> <g> <path style="fill:#263012;" d="M392.07,248.48c8.02,0,15.69,1.85,22.81,5.51l29.14,14.99V101.96H336.7C337.23,98,337.5,94,337.5,90 c0-49.63-40.37-90-90-90v495h196.52V327.98l-29.14,14.99c-7.12,3.65-14.79,5.51-22.81,5.51c-27.57,0-50-22.43-50-50 S364.5,248.48,392.07,248.48z"/> <path style="fill:#14180c;" d="M157.5,90c0,4,0.27,8,0.8,11.96H50.98v167.02l29.14-14.99c7.12-3.66,14.79-5.51,22.81-5.51 c27.57,0,50,22.43,50,50s-22.43,50-50,50c-8.02,0-15.69-1.86-22.81-5.51l-29.14-14.99V495H247.5V0C197.87,0,157.5,40.37,157.5,90z"/> </g> </g>
</svg>