<!DOCTYPE svg PUBLIC "-//W3C//DTD SVG 1.1//EN" "http://www.w3.org/Graphics/SVG/1.1/DTD/svg11.dtd">
<!-- Uploaded to: SVG Repo, www.svgrepo.com, Transformed by: SVG Repo Mixer Tools -->
<svg height="800px" width="800px" version="1.1" id="Layer_1" xmlns="http://www.w3.org/2000/svg" xmlns:xlink="http://www.w3.org/1999/xlink" viewBox="0 0 496.8 496.8" xml:space="preserve" fill="#000000">
<g id="SVGRepo_bgCarrier" stroke-width="0"/>
<g id="SVGRepo_tracerCarrier" stroke-linecap="round" stroke-linejoin="round"/>
<g id="SVGRepo_iconCarrier"> <path style="fill:#336600;" d="M114,12c26.4,12.8,46.4,36.8,55.2,65.6c56.8-24,120.8-27.2,177.6-3.2C333.2,32,293.2,0,246,0h-85.6 C143.6,0,128.4,5.6,114,12z"/> <path style="fill:#5ada16;" d="M136.4,360l-88-88.8V106.4C48.4,48,97.2,0,155.6,0h85.6C258,0,272.4,4,286,11.2 C250.8,28,224.4,64,224.4,106.4V208l0,0v63.2L136.4,360z"/> <path style="fill:#73c224;" d="M152.4,0h88.8C258,0,272.4,0.8,290,9.6c-36,17.6-65.6,54.4-65.6,96.8V208l0,0v63.2l-88,88.8l-88-88.8 "/> <path style="fill:#336600;" d="M360.4,136l88,88.8v164.8c0,58.4-48.8,106.4-107.2,106.4h-85.6c-16.8,0-31.2-4-44.8-11.2 c35.2-17.6,61.6-53.6,61.6-96V288l0,0v-63.2L360.4,136z"/> <path style="fill:#304f03;" d="M448.4,389.6c0,58.4-48.8,106.4-107.2,106.4h-85.6c-16.8,0-31.2-4-44.8-11.2 c35.2-17.6,61.6-53.6,61.6-96V288l0,0v-56"/> <path style="fill:#5ada16;" d="M387.6,485.6c-26.4-12.8-52-38.4-60-66.4c-56.8,24-120.8,26.4-177.6,2.4 c13.6,42.4,54.4,75.2,101.6,75.2h89.6C358,496,374,492,387.6,485.6z"/> <path style="fill:#73c224;" d="M251.6,496h89.6c16.8,0,32.8-4,46.4-11.2c-26.4-12.8-52-38.4-60-66.4"/> </g>
</svg>